<?xml version="1.0" encoding="UTF-8" standalone="no"?>
<svg xmlns="http://www.w3.org/2000/svg" version="1.1" width="64" height="64">
	<defs>
		<linearGradient id="linearGradientWindow" x1="0" y1="0" x2="1" y2="1" gradientUnits="objectBoundingBox">
			<stop stop-color="#FFF" offset="0"/>
			<stop stop-color="#CCC" offset="1"/>
		</linearGradient>
	</defs>
	<!-- Window -->
	<rect x="0.5" y="0.5" width="63" height="63" ry="1.5" stroke="#BBB" fill="url(#linearGradientWindow)"/>
	<g transform="translate(2, 5)">
		<rect x="0.5" y="0.5" width="59" height="56" ry="1.5" stroke="#BBB" fill="#FFF"/>
		<g transform="translate(4, 4)">
			<!-- Tree lines -->
			<path d="m0.5,2,0,7"   stroke="#AAA" stroke-dasharray="1, 1"/>
			<path d="m4.5,10,0,27" stroke="#AAA" stroke-dasharray="1, 1"/>
			<path d="m8.5,22,0,7"  stroke="#AAA" stroke-dasharray="1, 1"/>
			<path d="m8.5,38,0,7"  stroke="#AAA" stroke-dasharray="1, 1"/>
			<!-- Tree/text connecting lines -->
			<path d="m2,4.5,1,0"   stroke="#AAA" stroke-dasharray="1, 1"/>
			<path d="m2,8.5,1,0"   stroke="#AAA" stroke-dasharray="1, 1"/>
			<path d="m6,12.5,1,0"  stroke="#AAA" stroke-dasharray="1, 1"/>
			<path d="m6,16.5,1,0"  stroke="#AAA" stroke-dasharray="1, 1"/>
			<path d="m6,20.5,1,0"  stroke="#AAA" stroke-dasharray="1, 1"/>
			<path d="m10,24.5,1,0" stroke="#AAA" stroke-dasharray="1, 1"/>
			<path d="m10,28.5,1,0" stroke="#AAA" stroke-dasharray="1, 1"/>
			<path d="m6,32.5,1,0"  stroke="#AAA" stroke-dasharray="1, 1"/>
			<path d="m6,36.5,1,0"  stroke="#AAA" stroke-dasharray="1, 1"/>
			<path d="m10,40.5,1,0" stroke="#AAA" stroke-dasharray="1, 1"/>
			<path d="m10,44.5,1,0" stroke="#AAA" stroke-dasharray="1, 1"/>
			<!-- Text lines -->
			<rect x="0"  y="0"  width="40" height="1" fill="#CCC"/>
			<rect x="4"  y="4"  width="40" height="1" fill="#CCC"/>
			<rect x="4"  y="8"  width="40" height="1" fill="#CCC"/>
			<rect x="8"  y="12" width="40" height="1" fill="#CCC"/>
			<rect x="8"  y="16" width="40" height="1" fill="#CCC"/>
			<rect x="8"  y="20" width="40" height="1" fill="#CCC"/>
			<rect x="12" y="24" width="40" height="1" fill="#CCC"/>
			<rect x="12" y="28" width="40" height="1" fill="#CCC"/>
			<rect x="8"  y="32" width="40" height="1" fill="#CCC"/>
			<rect x="8"  y="36" width="40" height="1" fill="#CCC"/>
			<rect x="12" y="40" width="40" height="1" fill="#CCC"/>
			<rect x="12" y="44" width="40" height="1" fill="#CCC"/>
		</g>
	</g>
</svg>
