<?xml version="1.0" encoding="UTF-8" standalone="no"?>
<svg xmlns="http://www.w3.org/2000/svg" version="1.1" width="128" height="128">
	<defs>
		<linearGradient id="linearGradientWindow" x1="0" y1="0" x2="1" y2="1" gradientUnits="objectBoundingBox">
			<stop stop-color="#FFF" offset="0"/>
			<stop stop-color="#CCC" offset="1"/>
		</linearGradient>
		<linearGradient id="linearGradientText" x1="0" y1="0" x2="1" y2="0" gradientUnits="objectBoundingBox">
			<stop stop-color="#DDD" offset="0"/>
			<stop stop-color="#CCC" offset="1"/>
		</linearGradient>
	</defs>
	<!-- Window -->
	<rect x="0.5" y="0.5" width="127" height="127" ry="1.5" stroke="#BBB" fill="url(#linearGradientWindow)"/>
	<g transform="translate(3, 7)">
		<rect x="0.5" y="0.5" width="121" height="117" ry="1.5" stroke="#BBB" fill="#FFF"/>
		<g transform="translate(8, 8)">
			<!-- Tree lines -->
			<path d="m2.5,5,0,13"   stroke="#AAA" stroke-dasharray="1, 1"/>
			<path d="m10.5,21,0,53" stroke="#AAA" stroke-dasharray="1, 1"/>
			<path d="m18.5,45,0,13" stroke="#AAA" stroke-dasharray="1, 1"/>
			<path d="m18.5,77,0,13" stroke="#AAA" stroke-dasharray="1, 1"/>
			<!-- Tree/text connecting lines -->
			<path d="m4,9.5,3,0"   stroke="#AAA" stroke-dasharray="1, 1"/>
			<path d="m4,17.5,3,0"  stroke="#AAA" stroke-dasharray="1, 1"/>
			<path d="m12,25.5,3,0" stroke="#AAA" stroke-dasharray="1, 1"/>
			<path d="m12,33.5,3,0" stroke="#AAA" stroke-dasharray="1, 1"/>
			<path d="m12,41.5,3,0" stroke="#AAA" stroke-dasharray="1, 1"/>
			<path d="m20,49.5,3,0" stroke="#AAA" stroke-dasharray="1, 1"/>
			<path d="m20,57.5,3,0" stroke="#AAA" stroke-dasharray="1, 1"/>
			<path d="m12,65.5,3,0" stroke="#AAA" stroke-dasharray="1, 1"/>
			<path d="m12,73.5,3,0" stroke="#AAA" stroke-dasharray="1, 1"/>
			<path d="m20,81.5,3,0" stroke="#AAA" stroke-dasharray="1, 1"/>
			<path d="m20,89.5,3,0" stroke="#AAA" stroke-dasharray="1, 1"/>
			<!-- Text lines -->
			<rect x="0"  y="0"  width="82" height="3" fill="url(#linearGradientText)"/>
			<rect x="8"  y="8"  width="82" height="3" fill="url(#linearGradientText)"/>
			<rect x="8"  y="16" width="82" height="3" fill="url(#linearGradientText)"/>
			<rect x="16" y="24" width="82" height="3" fill="url(#linearGradientText)"/>
			<rect x="16" y="32" width="82" height="3" fill="url(#linearGradientText)"/>
			<rect x="16" y="40" width="82" height="3" fill="url(#linearGradientText)"/>
			<rect x="24" y="48" width="82" height="3" fill="url(#linearGradientText)"/>
			<rect x="24" y="56" width="82" height="3" fill="url(#linearGradientText)"/>
			<rect x="16" y="64" width="82" height="3" fill="url(#linearGradientText)"/>
			<rect x="16" y="72" width="82" height="3" fill="url(#linearGradientText)"/>
			<rect x="24" y="80" width="82" height="3" fill="url(#linearGradientText)"/>
			<rect x="24" y="88" width="82" height="3" fill="url(#linearGradientText)"/>
		</g>
	</g>
</svg>
