<?xml version="1.0" encoding="UTF-8" standalone="no"?>
<svg xmlns="http://www.w3.org/2000/svg" version="1.1" width="32" height="32">
	<defs>
		<linearGradient id="linearGradientWindow" x1="0" y1="0" x2="1" y2="1" gradientUnits="objectBoundingBox">
			<stop stop-color="#FFF" offset="0"/>
			<stop stop-color="#CCC" offset="1"/>
		</linearGradient>
	</defs>
	<!-- Window -->
	<rect x="0.5" y="0.5" width="31" height="31" ry="1.5" stroke="#BBB" fill="url(#linearGradientWindow)"/>
	<g transform="translate(2, 3)">
		<rect x="0.5" y="0.5" width="27" height="26" ry="1.5" stroke="#BBB" fill="#FFF"/>
		<g transform="translate(2, 2)">
			<!-- Tree lines -->
			<path d="m0.5,2,0,3"  stroke="#AAA" stroke-dasharray="1, 1"/>
			<path d="m2.5,6,0,13" stroke="#AAA" stroke-dasharray="1, 1"/>
			<path d="m4.5,12,0,3" stroke="#AAA" stroke-dasharray="1, 1"/>
			<path d="m4.5,20,0,3" stroke="#AAA" stroke-dasharray="1, 1"/>
			<!-- Text lines -->
			<rect x="0" y="0"  width="18" height="1" fill="#CCC"/>
			<rect x="2" y="2"  width="18" height="1" fill="#CCC"/>
			<rect x="2" y="4"  width="18" height="1" fill="#CCC"/>
			<rect x="4" y="6"  width="18" height="1" fill="#CCC"/>
			<rect x="4" y="8"  width="18" height="1" fill="#CCC"/>
			<rect x="4" y="10" width="18" height="1" fill="#CCC"/>
			<rect x="6" y="12" width="18" height="1" fill="#CCC"/>
			<rect x="6" y="14" width="18" height="1" fill="#CCC"/>
			<rect x="4" y="16" width="18" height="1" fill="#CCC"/>
			<rect x="4" y="18" width="18" height="1" fill="#CCC"/>
			<rect x="6" y="20" width="18" height="1" fill="#CCC"/>
			<rect x="6" y="22" width="18" height="1" fill="#CCC"/>
		</g>
	</g>
</svg>
