<?xml version="1.0" encoding="UTF-8" standalone="no"?>
<svg xmlns="http://www.w3.org/2000/svg" version="1.1" width="48" height="48">
	<defs>
		<linearGradient id="linearGradientWindow" x1="0" y1="0" x2="1" y2="1" gradientUnits="objectBoundingBox">
			<stop stop-color="#FFF" offset="0"/>
			<stop stop-color="#CCC" offset="1"/>
		</linearGradient>
	</defs>
	<!-- Window -->
	<rect x="0.5" y="0.5" width="47" height="47" ry="1.5" stroke="#BBB" fill="url(#linearGradientWindow)"/>
	<g transform="translate(2, 4)">
		<rect x="0.5" y="0.5" width="43" height="41" ry="1.5" stroke="#BBB" fill="#FFF"/>
		<g transform="translate(3, 3)">
			<!-- Tree lines -->
			<path d="m0.5,3,0,6"  stroke="#AAA" stroke-dasharray="1, 2"/>
			<path d="m3.5,9,0,21" stroke="#AAA" stroke-dasharray="1, 2"/>
			<path d="m6.5,18,0,5" stroke="#AAA" stroke-dasharray="1, 2"/>
			<path d="m6.5,30,0,5" stroke="#AAA" stroke-dasharray="1, 2"/>
			<!-- Tree/text connecting lines -->
			<path d="m1,3.5,1,0"  stroke="#AAA" stroke-dasharray="1, 1"/>
			<path d="m1,6.5,1,0"  stroke="#AAA" stroke-dasharray="1, 1"/>
			<path d="m4,9.5,1,0"  stroke="#AAA" stroke-dasharray="1, 1"/>
			<path d="m4,12.5,1,0" stroke="#AAA" stroke-dasharray="1, 1"/>
			<path d="m4,15.5,1,0" stroke="#AAA" stroke-dasharray="1, 1"/>
			<path d="m7,18.5,1,0" stroke="#AAA" stroke-dasharray="1, 1"/>
			<path d="m7,21.5,1,0" stroke="#AAA" stroke-dasharray="1, 1"/>
			<path d="m4,24.5,1,0" stroke="#AAA" stroke-dasharray="1, 1"/>
			<path d="m4,27.5,1,0" stroke="#AAA" stroke-dasharray="1, 1"/>
			<path d="m7,30.5,1,0" stroke="#AAA" stroke-dasharray="1, 1"/>
			<path d="m7,33.5,1,0" stroke="#AAA" stroke-dasharray="1, 1"/>
			<!-- Text lines -->
			<rect x="0" y="0"  width="29" height="1" fill="#CCC"/>
			<rect x="3" y="3"  width="29" height="1" fill="#CCC"/>
			<rect x="3" y="6"  width="29" height="1" fill="#CCC"/>
			<rect x="6" y="9"  width="29" height="1" fill="#CCC"/>
			<rect x="6" y="12" width="29" height="1" fill="#CCC"/>
			<rect x="6" y="15" width="29" height="1" fill="#CCC"/>
			<rect x="9" y="18" width="29" height="1" fill="#CCC"/>
			<rect x="9" y="21" width="29" height="1" fill="#CCC"/>
			<rect x="6" y="24" width="29" height="1" fill="#CCC"/>
			<rect x="6" y="27" width="29" height="1" fill="#CCC"/>
			<rect x="9" y="30" width="29" height="1" fill="#CCC"/>
			<rect x="9" y="33" width="29" height="1" fill="#CCC"/>
		</g>
	</g>
</svg>
