<?xml version="1.0" encoding="UTF-8" standalone="no"?>
<svg xmlns="http://www.w3.org/2000/svg" version="1.1" width="256" height="256">
	<defs>
		<linearGradient id="linearGradientWindow" x1="0" y1="0" x2="1" y2="1" gradientUnits="objectBoundingBox">
			<stop stop-color="#FFF" offset="0"/>
			<stop stop-color="#CCC" offset="1"/>
		</linearGradient>
		<linearGradient id="linearGradientText" x1="0" y1="0" x2="1" y2="0" gradientUnits="objectBoundingBox">
			<stop stop-color="#DDD" offset="0"/>
			<stop stop-color="#CCC" offset="1"/>
		</linearGradient>
	</defs>
	<!-- Window -->
	<rect x="0.5" y="0.5" width="255" height="255" ry="1.5" stroke="#BBB" fill="url(#linearGradientWindow)"/>
	<g transform="translate(4, 13)">
		<rect x="0.5" y="0.5" width="247" height="238" ry="1.5" stroke="#BBB" fill="#FFF"/>
		<g transform="translate(16, 16)">
			<!-- Tree lines -->
			<path d="m8.5,6,0,29"    stroke="#AAA" stroke-dasharray="1, 1"/>
			<path d="m24.5,38,0,109"  stroke="#AAA" stroke-dasharray="1, 1"/>
			<path d="m40.5,86,0,29"  stroke="#AAA" stroke-dasharray="1, 1"/>
			<path d="m40.5,150,0,29" stroke="#AAA" stroke-dasharray="1, 1"/>
			<!-- Tree/text connecting lines -->
			<path d="m10,18.5,5,0"  stroke="#AAA" stroke-dasharray="1, 1"/>
			<path d="m10,34.5,5,0"  stroke="#AAA" stroke-dasharray="1, 1"/>
			<path d="m26,50.5,5,0"  stroke="#AAA" stroke-dasharray="1, 1"/>
			<path d="m26,66.5,5,0"  stroke="#AAA" stroke-dasharray="1, 1"/>
			<path d="m26,82.5,5,0"  stroke="#AAA" stroke-dasharray="1, 1"/>
			<path d="m42,98.5,5,0"  stroke="#AAA" stroke-dasharray="1, 1"/>
			<path d="m42,114.5,5,0" stroke="#AAA" stroke-dasharray="1, 1"/>
			<path d="m26,130.5,5,0" stroke="#AAA" stroke-dasharray="1, 1"/>
			<path d="m26,146.5,5,0" stroke="#AAA" stroke-dasharray="1, 1"/>
			<path d="m42,162.5,5,0" stroke="#AAA" stroke-dasharray="1, 1"/>
			<path d="m42,178.5,5,0" stroke="#AAA" stroke-dasharray="1, 1"/>
			<!-- Text lines -->
			<rect x="0"  y="0"   width="168" height="5" fill="url(#linearGradientText)"/>
			<rect x="16" y="16"  width="168" height="5" fill="url(#linearGradientText)"/>
			<rect x="16" y="32"  width="168" height="5" fill="url(#linearGradientText)"/>
			<rect x="32" y="48"  width="168" height="5" fill="url(#linearGradientText)"/>
			<rect x="32" y="64"  width="168" height="5" fill="url(#linearGradientText)"/>
			<rect x="32" y="80"  width="168" height="5" fill="url(#linearGradientText)"/>
			<rect x="48" y="96"  width="168" height="5" fill="url(#linearGradientText)"/>
			<rect x="48" y="112" width="168" height="5" fill="url(#linearGradientText)"/>
			<rect x="32" y="128" width="168" height="5" fill="url(#linearGradientText)"/>
			<rect x="32" y="144" width="168" height="5" fill="url(#linearGradientText)"/>
			<rect x="48" y="160" width="168" height="5" fill="url(#linearGradientText)"/>
			<rect x="48" y="176" width="168" height="5" fill="url(#linearGradientText)"/>
		</g>
	</g>
</svg>
